<svg xmlns="http://www.w3.org/2000/svg" width="16" height="15.97" viewBox="0 0 16 15.97"><defs><style>.cls-1{fill:#fff;fill-rule:evenodd}</style></defs><path class="cls-1" d="M14.679 3.99H8.998l2.241-2.68c.036 0 .067.02.1.02a.668.668 0 0 0 .667-.67.667.667 0 0 0-1.334 0 .673.673 0 0 0 .046.23l-2.592 3.1h-.244L5.291.89a.7.7 0 0 0 .045-.23.668.668 0 0 0-1.335 0 .67.67 0 0 0 .668.67c.037 0 .069-.02.1-.02l2.242 2.68H1.33A1.335 1.335 0 0 0-.003 5.32v9.32a1.335 1.335 0 0 0 1.333 1.33h13.342a1.335 1.335 0 0 0 1.333-1.33V5.32a1.335 1.335 0 0 0-1.326-1.33zm-2.669 9.32a1.335 1.335 0 0 1-1.334 1.33h-8a1.336 1.336 0 0 1-1.335-1.33V6.65a1.336 1.336 0 0 1 1.335-1.33h8a1.335 1.335 0 0 1 1.334 1.33v6.66zm1.966-5.95a.95.95 0 1 1 .952-.95.954.954 0 0 1-.952.95z"/></svg>